# xmcd
#
# Track frame offsets: 
#        150
#        11677
#        22253
#        33312
#        45486
#        59027
#        70741
#        83223
#        96857
#        108635
#        119293
#        133169
#        150333
#        173298
#        184671
#
# Disc length: 2646 seconds
#
# Revision: 5
# Processed by: cddbd v1.5.2PL0 Copyright (c) Steve Scherf et al.
# Submitted via: ExactAudioCopy v1.3
#
DISCID=c20a540f
DTITLE=Various Artist - Music Guide Vol. 4: Blues Power
DYEAR=2004
DGENRE=Blues
TTITLE0=Boom Boom - John Lee Hooker
TTITLE1=I Ain't Got You - Jimmy Reed
TTITLE2=Who Do You Love? - Bo Diddley
TTITLE3=Fever - Little Willie John
TTITLE4=Stormy Monday - T-Bone Walker
TTITLE5=Midnight Special - Odetta
TTITLE6=Spoonful - Howlin' Wolf
TTITLE7=Things That I Used to Do - Guitar Slim
TTITLE8=Hide Away - Freddy King
TTITLE9=Fattening Frogs for Snakes - Sonny Boy Wiliamson
TTITLE10=I Can't Quit You Baby - Otis Rush
TTITLE11=Mannish Boy - Muddy Waters
TTITLE12=Let's Get Funky - Hound Dog Taylor and the House Rockers
TTITLE13=John the Revelator - Son House
TTITLE14=Where Did You Sleep Last Night? - Lead Belly
EXTD=plexi
EXTT0=
EXTT1=
EXTT2=
EXTT3=
EXTT4=
EXTT5=
EXTT6=
EXTT7=
EXTT8=
EXTT9=
EXTT10=
EXTT11=
EXTT12=
EXTT13=
EXTT14=
PLAYORDER=
